<?xml version="1.0" standalone="no"?>
<!DOCTYPE svg PUBLIC "-//W3C//DTD SVG 20010904//EN"
 "http://www.w3.org/TR/2001/REC-SVG-20010904/DTD/svg10.dtd">
<svg version="1.0" xmlns="http://www.w3.org/2000/svg"
 width="512.000000pt" height="512.000000pt" viewBox="0 0 512.000000 512.000000"
 preserveAspectRatio="xMidYMid meet">
<metadata>
Created by potrace 1.14, written by Peter Selinger 2001-2017
</metadata>
<g transform="translate(0.000000,512.000000) scale(0.100000,-0.100000)"
fill="#000000" stroke="none">
<path d="M2340 5113 c-28 -3 -116 -14 -220 -28 -8 -1 -28 -5 -45 -8 -16 -4
-45 -9 -64 -12 -19 -3 -38 -8 -43 -11 -4 -3 -16 -7 -25 -9 -70 -17 -205 -55
-221 -64 -11 -6 -22 -7 -26 -4 -3 3 -6 2 -6 -4 0 -5 -7 -10 -15 -11 -8 -1 -22
-3 -30 -4 -8 -1 -15 -4 -15 -8 0 -3 -17 -12 -37 -19 -21 -8 -58 -23 -83 -34
-50 -24 -47 -22 -77 -32 -13 -4 -23 -12 -23 -17 0 -5 -4 -6 -10 -3 -5 3 -10 1
-10 -4 0 -6 -6 -11 -12 -11 -16 0 -276 -153 -288 -169 -3 -4 -21 -18 -40 -31
-55 -38 -190 -150 -243 -202 -27 -27 -53 -48 -58 -48 -5 0 -9 -4 -9 -9 0 -4
-26 -35 -57 -67 -56 -57 -86 -93 -152 -179 -17 -22 -35 -45 -41 -52 -5 -7 -10
-15 -10 -18 0 -3 -9 -16 -21 -28 -11 -12 -28 -35 -36 -52 -8 -16 -26 -44 -39
-62 -53 -70 -227 -434 -250 -522 -2 -9 -11 -44 -20 -78 -9 -35 -21 -63 -26
-63 -5 0 -7 -4 -4 -9 4 -5 2 -20 -3 -34 -5 -13 -12 -39 -16 -58 -3 -19 -8 -43
-10 -54 -42 -197 -50 -281 -49 -535 0 -183 6 -295 19 -370 2 -14 7 -41 9 -60
7 -45 13 -74 26 -131 6 -26 13 -55 15 -65 2 -11 4 -20 5 -21 2 -2 3 -6 4 -10
21 -79 60 -202 76 -238 5 -11 11 -27 12 -35 2 -8 6 -17 9 -20 3 -3 16 -32 29
-65 23 -59 138 -285 149 -295 4 -3 24 -34 45 -70 41 -67 145 -209 178 -242 10
-10 16 -18 13 -18 -4 0 25 -33 136 -152 20 -21 41 -38 47 -38 7 0 12 -6 12
-12 0 -7 19 -29 42 -48 23 -19 52 -45 64 -56 13 -12 37 -32 56 -45 18 -13 42
-32 53 -42 11 -10 48 -36 82 -59 35 -23 63 -46 63 -52 0 -5 3 -6 7 -3 3 4 13
1 22 -6 9 -8 36 -25 61 -38 25 -13 47 -26 50 -29 9 -9 44 -30 70 -41 14 -7 60
-29 103 -50 42 -22 77 -36 77 -33 0 4 7 0 16 -7 15 -12 63 -32 104 -44 8 -2
61 -20 116 -39 56 -19 130 -41 165 -48 35 -7 66 -15 69 -18 3 -3 16 -6 30 -7
53 -5 86 -10 100 -16 8 -3 36 -8 63 -11 26 -3 51 -8 56 -11 5 -3 13 -1 16 5 5
8 11 7 21 -1 8 -6 25 -9 39 -7 14 3 25 2 25 -2 0 -8 403 -4 463 4 20 3 52 8
70 10 77 9 291 54 372 78 39 11 75 21 80 22 6 0 12 3 15 6 3 3 43 18 89 33 47
16 99 36 115 45 17 9 34 15 39 14 4 -1 7 3 7 9 0 5 5 7 10 4 6 -3 10 -1 10 6
0 7 3 10 6 7 7 -8 131 53 202 98 29 19 56 34 61 34 5 0 16 6 23 12 8 7 21 18
30 23 58 37 126 84 138 96 8 8 39 32 68 54 28 21 52 43 52 49 0 5 2 7 5 4 3
-3 24 12 46 33 22 22 46 39 51 39 6 0 9 2 6 5 -3 3 30 40 72 83 86 86 226 252
254 301 5 9 14 21 20 28 30 33 34 41 29 47 -4 3 -1 6 6 6 7 0 10 4 7 9 -4 5
-3 11 2 13 11 4 72 103 72 116 0 5 4 12 8 14 7 3 96 175 97 188 1 3 8 19 18
37 14 27 60 139 62 153 1 7 26 83 32 100 4 8 7 17 8 20 1 3 5 12 8 20 7 18 32
119 43 175 4 22 9 47 11 55 3 8 5 26 7 40 1 14 5 30 8 35 3 6 4 20 3 32 -1 13
1 23 5 23 4 0 6 10 6 22 -1 13 2 31 7 42 7 14 6 16 -4 11 -8 -6 -10 -4 -3 6 4
8 10 34 13 59 8 79 6 402 -3 480 -4 41 -10 89 -11 105 -2 17 -4 30 -5 30 -1 0
-3 11 -5 25 -2 14 -6 36 -9 50 -4 14 -9 39 -12 55 -12 68 -47 211 -56 228 -5
10 -12 31 -14 45 -3 15 -10 32 -16 39 -6 7 -8 13 -4 13 4 0 0 14 -9 30 -9 17
-14 30 -11 30 6 0 -54 139 -103 238 -23 45 -41 87 -41 91 0 5 -4 11 -8 13 -5
2 -23 31 -42 66 -18 34 -37 62 -41 62 -5 0 -9 9 -9 21 0 11 -4 17 -10 14 -6
-3 -10 1 -10 9 0 8 -6 21 -13 28 -7 7 -27 33 -44 58 -80 117 -308 370 -333
370 -6 0 -8 5 -5 10 3 6 -1 10 -9 10 -9 0 -16 7 -16 15 0 8 -4 15 -8 15 -9 0
-69 48 -110 88 -12 12 -26 22 -30 22 -4 0 -18 10 -32 21 -49 39 -226 155 -290
188 -36 19 -66 38 -68 43 -2 4 -9 8 -15 8 -7 0 -44 15 -82 34 -39 18 -81 37
-95 41 -14 4 -29 11 -35 15 -13 10 -173 65 -250 85 -33 9 -69 19 -80 22 -11 3
-32 6 -47 7 -14 0 -24 4 -22 7 2 4 -31 12 -74 18 -42 6 -90 14 -107 17 -16 3
-45 7 -65 10 -43 5 -472 11 -520 7z"/>
</g>
</svg>
