<?xml version="1.0" standalone="no"?>
<!DOCTYPE svg PUBLIC "-//W3C//DTD SVG 20010904//EN"
 "http://www.w3.org/TR/2001/REC-SVG-20010904/DTD/svg10.dtd">
<svg version="1.0" xmlns="http://www.w3.org/2000/svg"
 width="460.000000pt" height="460.000000pt" viewBox="0 0 460.000000 460.000000"
 preserveAspectRatio="xMidYMid meet">
<metadata>
Created by potrace 1.14, written by Peter Selinger 2001-2017
</metadata>
<g transform="translate(0.000000,460.000000) scale(0.100000,-0.100000)"
fill="#000000" stroke="none">
<path d="M1654 4530 c-11 -4 -36 -9 -55 -11 -19 -2 -38 -6 -44 -10 -20 -13
-104 -37 -109 -31 -3 3 -6 0 -6 -7 0 -7 -4 -10 -9 -6 -6 3 -25 -8 -44 -25 -19
-17 -49 -35 -66 -41 -17 -6 -28 -15 -25 -20 3 -5 -2 -9 -10 -9 -8 0 -20 -8
-25 -17 -5 -10 -28 -29 -51 -43 -22 -14 -43 -35 -46 -46 -3 -12 -19 -34 -35
-50 -41 -40 -60 -110 -65 -244 -5 -144 6 -186 64 -251 49 -54 122 -109 146
-109 8 0 22 -14 30 -31 17 -35 10 -53 -25 -64 -10 -4 -19 -12 -19 -18 0 -7
-21 -46 -47 -87 -29 -47 -47 -89 -49 -111 -1 -20 -9 -49 -17 -65 -8 -16 -16
-42 -18 -59 -2 -16 -7 -35 -12 -42 -5 -7 -6 -17 -2 -23 3 -5 2 -10 -3 -10 -4
0 -9 -57 -9 -127 -1 -120 -7 -186 -19 -224 -5 -18 -59 -41 -139 -60 -27 -6
-59 -19 -70 -28 -11 -10 -31 -22 -45 -28 -56 -24 -238 -202 -302 -295 -21 -32
-36 -58 -32 -58 3 0 1 -7 -6 -15 -7 -9 -10 -18 -7 -22 3 -3 -1 -20 -10 -37
-23 -42 -33 -116 -40 -277 -5 -128 -3 -139 22 -215 32 -93 83 -204 99 -219 7
-5 20 -22 29 -37 10 -15 45 -49 78 -75 34 -27 80 -65 102 -85 31 -28 72 -48
186 -87 80 -28 154 -51 163 -51 21 0 33 -52 18 -79 -6 -12 -8 -21 -5 -21 3 0
-3 -10 -15 -22 -11 -12 -20 -28 -20 -35 0 -7 -4 -13 -8 -13 -12 0 -63 -96 -55
-104 3 -3 0 -6 -7 -6 -7 0 -11 -3 -8 -6 3 -3 -9 -39 -28 -79 -19 -41 -34 -83
-34 -94 0 -11 -5 -23 -10 -26 -6 -4 -8 -10 -5 -15 3 -5 -3 -32 -14 -59 -10
-28 -18 -51 -16 -51 2 0 -13 -48 -34 -107 -20 -60 -37 -115 -36 -123 1 -8 -3
-20 -7 -27 -5 -6 -5 -14 0 -17 14 -8 4 -75 -13 -92 -12 -12 -15 -30 -12 -68 4
-50 -8 -96 -25 -96 -5 0 -6 -5 -3 -10 4 -7 518 -10 1511 -10 l1504 0 0 68 c0
37 -5 85 -11 107 -5 22 -17 114 -25 205 -9 91 -19 201 -23 245 -4 44 -20 119
-34 168 -15 48 -27 95 -27 104 0 9 -6 24 -13 32 -7 9 -26 45 -42 81 -31 71
-74 136 -105 157 -37 26 -25 59 35 100 30 21 54 44 55 51 0 6 5 12 11 12 28 0
269 267 269 298 0 5 8 16 18 25 25 23 72 128 112 252 22 66 23 86 24 350 1
186 -3 293 -11 320 -6 22 -17 60 -23 85 -33 122 -75 236 -114 307 -79 144 -95
168 -153 234 -32 36 -74 93 -93 127 -19 34 -43 64 -52 67 -28 10 -21 39 13 54
16 7 47 32 67 54 20 23 47 51 60 63 12 12 36 51 52 87 28 62 30 75 30 183 0
97 -4 127 -25 191 -37 109 -98 232 -145 291 -45 58 -138 125 -214 155 -55 22
-66 23 -252 19 -105 -2 -124 -5 -144 -22 -13 -11 -48 -32 -79 -47 -31 -14 -66
-36 -79 -47 -13 -12 -25 -20 -28 -18 -21 12 -104 -68 -149 -143 -23 -40 -24
-50 -20 -141 2 -55 7 -111 11 -126 6 -26 4 -28 -22 -28 -16 0 -45 4 -64 10
-37 11 -90 15 -318 26 l-144 7 7 31 c24 114 13 218 -32 309 -21 42 -88 117
-150 167 -19 16 -79 37 -125 44 -15 3 -31 7 -35 9 -17 10 -129 16 -149 7z"/>
</g>
</svg>
